PathFileType	4	(X/Y/Z)	D:\TRACE\v60_Jaco2_6-2-23\JustArmDRS_Motion1_3-v60.trc
DataRate	CameraRate	NumFrames	NumMarkers	Units	OrigDataRate	OrigDataStartFrame	OrigNumFrames
100.00	100.00	      17	9	mm	100.00	4227	      6763
Frame#	Time	front left toe			Front right toe			aft left toe			aft right toe			Arm			FL body			FR body			AL Body			AR Body			
		X1	Y1	Z1	X2	Y2	Z2	X3	Y3	Z3	X4	Y4	Z4	X5	Y5	Z5	X6	Y6	Z6	X7	Y7	Z7	X8	Y8	Z8	X9	Y9	Z9	

4227	42.260	-177.16226	19.27664	-166.97278	230.78053	16.77135	-211.39438	-110.60384	18.53288	437.85950	291.84912	21.12790	425.82870	79.54531	1104.82141	-624.62958	-64.59822	576.14099	-315.27191	94.69332	575.63220	-332.14792	35.65767	590.98462	624.83093	191.62621	584.82330	609.72150	
4228	42.270	-175.99448	19.26434	-166.89848	231.56801	16.88641	-211.43008	-109.62869	18.19965	438.01605	292.70218	20.84818	425.92239	79.92656	1105.51624	-623.25208	-63.38783	576.18970	-315.00809	96.16387	575.64905	-331.84747	36.66356	590.71881	625.07074	192.88452	584.57501	609.84589	
4229	42.280	-175.19725	19.39198	-166.63713	232.70692	17.16633	-211.16264	-108.66404	17.87647	438.01923	293.37036	20.37674	426.03931	80.48426	1106.03369	-621.75116	-62.20177	576.53741	-314.91498	97.48689	575.92969	-332.24829	37.92140	590.43384	625.20032	194.64572	584.37238	609.55023	
4230	42.290	-174.69849	19.71320	-166.58519	233.62698	17.39292	-211.04822	-107.66018	17.52002	438.20889	294.65775	20.16881	426.24438	80.64349	1106.61279	-620.68689	-61.06924	576.58496	-314.79248	98.76717	576.06824	-332.05524	39.01116	590.17456	625.30005	195.68549	584.11267	609.71741	
4231	42.300	-173.38445	19.71870	-166.60678	234.51942	17.59278	-210.93623	-106.74359	17.30925	438.28882	295.40952	19.84026	426.21088	81.05864	1107.04871	-619.09070	-59.98138	576.71362	-314.40131	99.33369	576.11414	-331.51825	40.31783	589.88519	625.58624	196.92255	583.82574	609.92432	
4232	42.310	-172.41460	19.77969	-166.41258	235.38197	17.77774	-210.84456	-105.94304	17.07519	438.40717	296.17294	19.32482	426.25565	81.43745	1107.39587	-617.93378	-58.86920	577.08484	-314.09076	100.38580	576.16376	-331.37051	41.49680	589.59637	625.84387	198.19888	583.44757	610.12793	
4233	42.320	-171.85152	20.03254	-166.13068	236.29747	17.95794	-210.66426	-105.40119	16.91355	438.44290	297.34454	19.26303	426.44946	81.76207	1108.06409	-616.61719	-57.91191	577.28870	-314.05722	101.81178	576.42438	-331.33984	42.68164	589.29572	626.01691	199.17390	583.12445	610.19281	
4234	42.330	-170.86530	20.23159	-166.03664	237.03008	18.00839	-210.68912	-104.48421	16.76707	438.45947	297.99133	18.99049	426.47009	82.16121	1108.53210	-615.20056	-56.76941	577.30634	-313.73206	102.93845	576.49908	-331.26334	43.73246	588.97357	626.20300	201.49483	582.74316	610.35193	
4235	42.340	-169.92801	20.30280	-166.15945	238.02415	18.18736	-210.67424	-103.42101	16.51194	438.59637	298.65540	18.42474	426.65393	82.58773	1108.90430	-614.00647	-55.66970	577.55536	-313.50815	104.19903	576.69971	-331.02597	45.17914	588.51373	626.42218	201.90343	582.46558	610.52454	
4236	42.350	-169.17458	20.35680	-166.03310	238.91057	18.37714	-210.44716	-102.45337	16.23692	438.75970	299.82913	18.21025	426.77100	83.08601	1109.50964	-612.67334	-54.63440	577.81299	-313.40732	104.71245	576.70154	-330.40466	46.31994	588.34827	626.60187	203.04887	581.87799	610.79352	
4237	42.360	-168.40700	20.51343	-165.74950	239.44179	18.31272	-210.35429	-101.75435	15.81702	438.84497	300.60748	17.99329	426.77832	83.74945	1110.21033	-611.61243	-53.80483	578.08551	-313.14441	105.54031	576.79889	-330.48151	47.52333	588.02472	626.84998	204.44278	581.45996	611.10382	
4238	42.370	-167.15454	20.62560	-165.65311	240.28642	18.57392	-210.16405	-100.89803	15.36778	438.81995	301.35428	17.47001	426.90439	84.14642	1110.73645	-610.46747	-52.51035	578.17627	-312.89511	106.98712	577.06421	-330.39499	48.62375	587.60504	626.99384	205.34790	581.18872	611.20410	
4239	42.380	-166.44855	20.81956	-165.63177	241.37192	18.76200	-209.99959	-99.99622	15.17409	438.96664	302.48590	17.30189	427.01810	84.72884	1111.45886	-609.34943	-51.54366	578.37329	-312.69888	108.14004	577.26233	-330.21323	49.92565	587.26587	627.27484	206.44931	580.79736	611.38806	
4240	42.390	-165.88193	21.14248	-165.50778	241.87680	18.74800	-210.00485	-99.18627	14.80550	439.05173	303.17273	17.01754	427.06894	85.48691	1111.83484	-608.45728	-51.16002	578.75543	-312.47348	109.00624	577.57214	-330.08420	51.17982	587.03546	627.53326	207.43311	580.33490	611.47638	
4241	42.400	-165.32147	21.21474	-165.41243	242.67531	18.98331	-209.84642	-98.46044	14.51441	439.12918	303.63806	16.52773	427.18134	86.27861	1112.13257	-607.49371	-49.66920	578.88501	-312.09061	109.39705	577.60242	-329.49536	52.25558	586.73090	627.76440	209.02733	580.03534	612.00958	
4242	42.410	-163.94951	21.20063	-165.21150	243.66464	19.22103	-209.68686	-97.64166	14.04829	439.21442	304.78979	16.38095	427.32214	87.15365	1112.57300	-606.69208	-48.60006	579.03375	-311.90408	110.41605	577.69702	-329.31537	52.94472	586.47174	627.74615	209.59578	579.57642	612.63446	
4243	42.420	-163.23878	21.49645	-164.94003	244.31036	19.27691	-209.71362	-96.82259	13.87151	439.24820	305.38943	16.05678	427.40781	87.93963	1112.82422	-606.15863	-48.07114	579.20642	-311.73538	111.53244	577.99738	-329.51950	54.37424	586.12469	628.27832	210.49440	579.21063	612.57819	
